<?xml version="1.0" encoding="utf-8"?>
<!-- Generator: Adobe Illustrator 27.9.0, SVG Export Plug-In . SVG Version: 6.00 Build 0)  -->
<svg version="1.1" id="Layer_1" xmlns="http://www.w3.org/2000/svg" xmlns:xlink="http://www.w3.org/1999/xlink" x="0px" y="0px"
	 viewBox="0 0 775.6 493.1" style="enable-background:new 0 0 775.6 493.1;" xml:space="preserve">
<style type="text/css">
	.st0{fill:none;stroke:#445261;stroke-width:2;stroke-miterlimit:10;}
	.st1{font-family:'ArialMT';}
	.st2{font-size:12px;}
	.st3{fill:#FFFFFF;stroke:#000000;stroke-miterlimit:10;}
</style>
<g>
	<path id="SVGID_x5F_1_x5F_" class="st0" d="M8.4,420.4c-19.3-42.3-4.5-95.9,35.8-150.9C96,198.7,190,125.7,307.9,71.7c209.5-96,415.2-95.5,459.3,1s-90,252.7-299.5,348.7S52.5,517,8.4,420.4z"/>
	<path id="SVGID_x5F_1_x5F_" class="st0" d="M8.4,420.4c-44.1-96.6,90-252.7,299.5-348.7s415.2-95.5,459.3,1s-90,252.7-299.5,348.7S52.5,517,8.4,420.4z"/>
	<text transform="matrix(-0.4744 0.8803 -0.8803 -0.4744 754.303 187.37)" class="st1 st2"> </text>
	<text transform="matrix(-0.4858 0.8741 -0.8741 -0.4858 752.7209 190.3047)" class="st1 st2"> </text>
</g>
<path class="st3" d="M646,34.7"/>
</svg>
