<?xml version="1.0" encoding="utf-8"?>
<!-- Generator: Adobe Illustrator 27.9.0, SVG Export Plug-In . SVG Version: 6.00 Build 0)  -->
<svg version="1.1" id="Layer_1" xmlns="http://www.w3.org/2000/svg" xmlns:xlink="http://www.w3.org/1999/xlink" x="0px" y="0px"
	 viewBox="0 0 748.1 493.6" style="enable-background:new 0 0 748.1 493.6;" xml:space="preserve">
<style type="text/css">
	.st0{fill:none;stroke:#445261;stroke-width:2;stroke-miterlimit:9.9998;}
	.st1{fill:#445261;}
</style>
<ellipse transform="matrix(0.9093 -0.4161 0.4161 0.9093 -78.0121 176.5813)" class="st0" cx="366.1" cy="267.3" rx="394.9" ry="171.2"/>
<g>
	<path class="st1" d="M573.3,16.5c-0.4,0-0.8,0-1.3,0.1s-0.9,0.1-1.4,0.2c0.9-1.2,1.7-2.3,2.5-3.5c0.8-1.2,1.4-2.4,1.9-3.5
		c0.5-1.2,0.7-2.3,0.7-3.4c0-1.3-0.2-2.4-0.7-3.3s-1.1-1.7-1.9-2.2c-0.8-0.5-1.7-0.8-2.7-0.7c-1.1,0-2.1,0.3-2.9,0.8
		c-0.8,0.5-1.6,1.3-2.4,2.4l2,2.4c0.4-0.5,0.8-1,1.3-1.4c0.5-0.4,1-0.6,1.6-0.6c0.5,0,0.9,0.1,1.2,0.3c0.4,0.2,0.6,0.6,0.8,1
		s0.3,1,0.3,1.7c0,1-0.3,2-0.8,3.1c-0.6,1.1-1.4,2.3-2.4,3.7c-1,1.3-2.2,2.8-3.6,4.5l0,2.5l11.1-0.1l0-3.8L573.3,16.5z"/>
	<path class="st1" d="M587.5,1.3c-0.8-0.8-1.8-1.2-2.9-1.2c-1.1,0-2.1,0.3-3,1.1s-1.5,1.9-2,3.4s-0.8,3.4-0.8,5.6
		c-0.1,2.3,0.2,4.2,0.6,5.7c0.4,1.5,1.1,2.7,1.9,3.5s1.8,1.2,2.9,1.2c1.2,0,2.2-0.4,3-1.2c0.9-0.8,1.5-1.9,2-3.5
		c0.5-1.5,0.8-3.4,0.8-5.7c0-2.2-0.2-4.1-0.6-5.7C588.9,3.2,588.3,2,587.5,1.3z M586.6,10.3c0,1.8-0.2,3.2-0.4,4.2s-0.5,1.7-0.8,2.1
		c-0.3,0.4-0.7,0.6-1.2,0.6c-0.4,0-0.8-0.2-1.1-0.6c-0.3-0.4-0.6-1.1-0.8-2.1c-0.2-1-0.3-2.4-0.2-4.2c0-1.8,0.2-3.2,0.4-4.2
		c0.2-1,0.5-1.6,0.9-2c0.3-0.4,0.7-0.5,1.2-0.5c0.4,0,0.8,0.2,1.2,0.6s0.6,1,0.8,2C586.5,7.1,586.6,8.5,586.6,10.3z"/>
	<path class="st1" d="M598.2,17.1c-0.5,0-1,0.1-1.4,0.1c0.9-1.1,1.8-2.2,2.7-3.3s1.5-2.3,2.1-3.4c0.6-1.1,0.9-2.3,0.9-3.4
		c0.1-1.3-0.1-2.4-0.5-3.4c-0.4-1-1-1.7-1.7-2.3s-1.6-0.9-2.7-0.9c-1.1-0.1-2.1,0.2-3,0.6c-0.8,0.5-1.7,1.2-2.5,2.2l1.8,2.5
		c0.4-0.5,0.9-0.9,1.4-1.3c0.5-0.4,1-0.6,1.6-0.5c0.5,0,0.9,0.2,1.2,0.4c0.3,0.3,0.6,0.6,0.7,1.1c0.2,0.5,0.2,1,0.2,1.7
		c-0.1,0.9-0.4,2-1,3s-1.5,2.2-2.6,3.5c-1.1,1.3-2.4,2.7-3.8,4.2l-0.1,2.6l11.1,0.6l0.2-3.8l-3.3-0.2
		C599.1,17.1,598.7,17.1,598.2,17.1z"/>
	<path class="st1" d="M614,2.3c-0.8-0.5-1.7-0.8-2.8-0.9c-0.9-0.1-1.8,0.1-2.7,0.5c-0.8,0.4-1.7,0.9-2.5,1.6l1.6,2.9
		c0.5-0.5,1.1-0.9,1.6-1.2s1-0.4,1.6-0.3c0.6,0.1,1.1,0.3,1.4,0.7c0.3,0.4,0.4,1,0.4,1.7c0,0.5-0.2,1-0.5,1.4
		c-0.3,0.4-0.7,0.7-1.3,0.9c-0.6,0.2-1.3,0.2-2.3,0.2l-0.3,3.2c1.2,0.1,2,0.3,2.6,0.6c0.6,0.3,1,0.7,1.2,1.1c0.2,0.5,0.3,1,0.2,1.6
		c0,0.5-0.2,1-0.4,1.3c-0.2,0.4-0.6,0.6-1,0.8c-0.4,0.2-0.9,0.2-1.4,0.2c-0.7-0.1-1.3-0.3-1.8-0.8c-0.5-0.5-1-1-1.5-1.6l-1.9,2.6
		c0.3,0.6,0.7,1.1,1.2,1.6c0.5,0.5,1.1,0.9,1.7,1.2c0.7,0.3,1.4,0.5,2.3,0.6c1.1,0.1,2.1,0,3-0.4c0.9-0.4,1.7-1,2.3-1.8
		s1-1.8,1.1-3.1c0.1-0.8,0-1.6-0.2-2.3c-0.2-0.7-0.6-1.2-1-1.7c-0.4-0.5-1-0.8-1.5-1.1l0-0.1c0.9-0.4,1.6-0.9,2.1-1.6
		c0.5-0.7,0.8-1.5,0.9-2.6c0.1-1.2,0-2.2-0.4-3C615.4,3.5,614.8,2.8,614,2.3z"/>
	<path class="st1" d="M634.8,4.7c-0.9-0.5-2-0.9-3.1-1.1l-5.5-0.8l-3,20.2l3.5,0.5l1-6.9l2,0.3c1.2,0.2,2.2,0.1,3.3-0.3
		c1-0.3,1.9-1,2.6-1.9c0.7-0.9,1.2-2.2,1.4-3.7c0.2-1.6,0.1-3-0.3-4C636.4,6,635.8,5.3,634.8,4.7z M633.7,10.5
		c-0.2,1.1-0.5,1.8-1.1,2.3c-0.6,0.5-1.4,0.7-2.4,0.5l-1.8-0.3l0.9-6.2l1.7,0.2c1,0.1,1.8,0.5,2.2,1C633.7,8.6,633.9,9.4,633.7,10.5
		z"/>
	<path class="st1" d="M651.8,8.2c-0.9-1-2.1-1.7-3.5-2c-1.4-0.3-2.8-0.1-4,0.4c-1.3,0.6-2.3,1.6-3.3,3s-1.6,3.2-2.1,5.4
		s-0.5,4.1-0.2,5.8c0.3,1.7,0.9,3.1,1.8,4.1c0.9,1.1,2.1,1.7,3.5,2c1.4,0.3,2.8,0.2,4-0.5c1.2-0.6,2.3-1.6,3.3-3.1
		c0.9-1.4,1.6-3.2,2.1-5.4c0.4-2.2,0.5-4.1,0.2-5.7C653.4,10.6,652.8,9.2,651.8,8.2z M649.9,17.2c-0.3,1.4-0.7,2.5-1.2,3.4
		c-0.5,0.9-1.1,1.6-1.7,2.1c-0.7,0.4-1.3,0.6-2.1,0.4c-0.7-0.2-1.3-0.6-1.8-1.2c-0.4-0.7-0.7-1.5-0.8-2.6s0-2.3,0.3-3.6
		c0.3-1.3,0.7-2.5,1.2-3.4c0.5-0.9,1.1-1.6,1.7-2c0.7-0.4,1.3-0.5,2.1-0.4s1.3,0.5,1.8,1.2c0.4,0.6,0.7,1.5,0.8,2.5
		C650.2,14.7,650.1,15.9,649.9,17.2z"/>
	<path class="st1" d="M668,12c-0.8-0.6-1.8-1.1-2.9-1.4L659.5,9l-5.4,19.7l3.4,1l2-7.2l2,0.6l1.1,8l3.9,1l-1.4-8.9
		c1-0.2,1.8-0.7,2.6-1.5c0.8-0.8,1.4-1.9,1.8-3.4c0.4-1.5,0.5-2.8,0.2-3.9C669.3,13.4,668.8,12.6,668,12z M666.1,17.4
		c-0.3,1-0.7,1.7-1.4,2c-0.6,0.4-1.4,0.4-2.4,0.2l-1.9-0.5l1.5-5.6l1.9,0.5c1,0.3,1.6,0.6,2,1.2C666.3,15.6,666.3,16.4,666.1,17.4z"
		/>
	<polygon class="st1" points="685.2,17 673.3,12.9 672.1,16.4 676.4,17.9 670.9,33.7 674.3,34.8 679.8,19.1 684,20.6 	"/>
	
		<rect x="682.5" y="27" transform="matrix(0.3736 -0.9276 0.9276 0.3736 400.6081 653.4439)" class="st1" width="3.2" height="6.1"/>
	<polygon class="st1" points="694.8,30.6 696.9,26.1 702.9,29 704.5,25.6 695.3,21.2 686.5,39.6 689.8,41.2 693.2,33.9 698.3,36.4 
		700,33 	"/>
	<path class="st1" d="M714.8,43.3c1.2-1.9,1.8-3.7,2.1-5.3c0.3-1.7,0.1-3.1-0.4-4.4c-0.5-1.3-1.4-2.3-2.7-3
		c-1.2-0.8-2.6-1.1-3.9-0.9c-1.4,0.1-2.7,0.7-4.1,1.7s-2.6,2.5-3.7,4.4s-1.9,3.7-2.2,5.4c-0.3,1.7-0.2,3.2,0.3,4.5
		c0.5,1.3,1.4,2.3,2.6,3.1c1.3,0.8,2.6,1.1,4,0.9c1.4-0.2,2.8-0.8,4.1-1.8C712.4,46.7,713.7,45.2,714.8,43.3z M709.5,44.3
		c-0.8,0.7-1.6,1.2-2.3,1.3c-0.8,0.2-1.5,0.1-2.1-0.3s-1.1-1-1.3-1.7c-0.2-0.8-0.2-1.7,0.1-2.7c0.3-1,0.8-2.1,1.5-3.3
		c0.7-1.2,1.4-2.1,2.2-2.8c0.8-0.7,1.5-1.1,2.3-1.3c0.8-0.2,1.4,0,2.1,0.4s1.1,1,1.3,1.7c0.2,0.7,0.2,1.6-0.1,2.6s-0.7,2.1-1.4,3.3
		C711,42.6,710.2,43.6,709.5,44.3z"/>
	<polygon class="st1" points="716.7,52.9 726.8,39.7 724,37.5 711.6,53.7 719.5,59.8 721.8,56.9 	"/>
	
		<rect x="719.3" y="53.4" transform="matrix(0.6781 -0.735 0.735 0.6781 194.2341 553.957)" class="st1" width="20.4" height="3.6"/>
	<path class="st1" d="M746.5,57.6c-0.9-1.1-2.1-1.8-3.4-2.1c-1.3-0.3-2.8-0.2-4.4,0.3c-1.6,0.5-3.2,1.5-4.9,3
		c-1.7,1.4-2.9,2.9-3.7,4.4c-0.8,1.5-1.2,3-1.1,4.4c0.1,1.4,0.6,2.7,1.5,3.8c1,1.1,2.1,1.8,3.5,2.1c1.4,0.3,2.9,0.1,4.5-0.4
		s3.3-1.6,4.9-3c1.7-1.4,2.9-2.9,3.7-4.4c0.8-1.5,1.1-2.9,1-4.3S747.4,58.7,746.5,57.6z M743.4,64.6c-0.6,0.9-1.3,1.8-2.4,2.7
		c-1.1,0.9-2.1,1.6-3,2s-1.8,0.6-2.6,0.6c-0.8-0.1-1.4-0.4-1.9-1c-0.5-0.6-0.7-1.3-0.7-2c0.1-0.8,0.4-1.6,0.9-2.5
		c0.6-0.9,1.4-1.8,2.4-2.7c1-0.9,2-1.6,3-2c1-0.4,1.8-0.6,2.6-0.5c0.8,0.1,1.4,0.4,1.9,1c0.5,0.6,0.7,1.2,0.7,2
		S743.9,63.7,743.4,64.6z"/>
</g>
</svg>
